Coordinates
version=1
nRows=14
nColumns=24
inDegrees=yes

Units are S.I. units (second, meters, Newtons, ...)
Angles are in degrees.

endheader
time	pelvis_tilt	pelvis_list	pelvis_rotation	pelvis_tx	pelvis_ty	pelvis_tz	hip_flexion_r	hip_adduction_r	hip_rotation_r	knee_angle_r	ankle_angle_r	subtalar_angle_r	mtp_angle_r	hip_flexion_l	hip_adduction_l	hip_rotation_l	knee_angle_l	ankle_angle_l	subtalar_angle_l	mtp_angle_l	lumbar_extension	lumbar_bending	lumbar_rotation
      1.17983333	      3.92726822	      6.80292094	     -3.76027894	      0.15389135	      1.02212962	      0.25154008	     11.97230997	     -8.88265791	     -2.78200392	    -65.75299520	      3.88158843	    -18.67486672	     -3.17233349	      3.54701742	     10.02962108	     -1.28595887	     -9.30457995	      1.03164054	    -14.10607756	      4.87692681	     -8.70097240	     -8.67097343	      6.83381218
      1.18400000	      3.90051069	      6.67346787	     -3.69416378	      0.15890260	      1.02282832	      0.25128064	     12.47917222	     -8.64847664	     -2.77603707	    -65.28571080	      4.09494915	    -18.55157041	     -3.16133313	      3.10677177	      9.93955663	     -1.07812283	     -9.04048625	      1.12861267	    -14.18389397	      4.83395456	     -8.73566209	     -8.53550096	      6.48189871
      1.18816667	      3.86395297	      6.53352981	     -3.65108944	      0.16394008	      1.02348131	      0.25109559	     12.98356742	     -8.38650089	     -2.73978017	    -64.75182251	      4.30944205	    -18.46265634	     -3.14974966	      2.68357192	      9.82420233	     -0.98277453	     -8.78814787	      1.22592392	    -14.17140143	      4.81508914	     -8.73529387	     -8.39394252	      6.35401644
      1.19233333	      3.84092387	      6.39157821	     -3.58730455	      0.16898319	      1.02415268	      0.25087872	     13.44686756	     -8.13155519	     -2.73308361	    -64.14388283	      4.50535140	    -18.32327829	     -3.13189237	      2.23674289	      9.70902024	     -0.85007876	     -8.52000194	      1.32651571	    -14.16518153	      4.79242446	     -8.75364332	     -8.24370794	      6.15618244
      1.19650000	      3.81871905	      6.26316374	     -3.51772790	      0.17402353	      1.02476587	      0.25066780	     13.89791734	     -7.89490465	     -2.73343082	    -63.48857526	      4.69426545	    -18.16079927	     -3.10653401	      1.78609652	      9.60691574	     -0.71086172	     -8.24299647	      1.42405150	    -14.16546641	      4.76548526	     -8.77269508	     -8.11000702	      5.91733200
      1.20066667	      3.79053812	      6.16450393	     -3.43728300	      0.17906414	      1.02531454	      0.25044567	     14.34803557	     -7.69945033	     -2.74784070	    -62.79649360	      4.87623587	    -17.98613096	     -3.05100475	      1.32997511	      9.53834944	     -0.52505250	     -7.93663230	      1.51252715	    -14.20920762	      4.70776634	     -8.79034286	     -8.00526738	      5.55482736
      1.20483333	      3.74633962	      6.02556743	     -3.36279877	      0.18412345	      1.02585333	      0.25026919	     14.78423706	     -7.44525892	     -2.75199733	    -62.01631963	      5.01920710	    -17.83805234	     -3.02248760	      0.90214419	      9.41475280	     -0.42470675	     -7.65760417	      1.59954031	    -14.17307893	      4.68410587	     -8.77578625	     -7.85753083	      5.41636453
      1.20900000	      3.71899276	      5.90049176	     -3.27704486	      0.18917294	      1.02635604	      0.25008194	     15.18814354	     -7.21531620	     -2.77285269	    -61.19344605	      5.16115812	    -17.66796501	     -2.98976379	      0.45253647	      9.30678243	     -0.30113629	     -7.36921955	      1.69492868	    -14.13920413	      4.65994588	     -8.78958763	     -7.72100152	      5.20837889
      1.21316667	      3.70098830	      5.80709428	     -3.17427714	      0.19421881	      1.02680230	      0.24986814	     15.57294169	     -7.03472022	     -2.81754279	    -60.34125475	      5.29098961	    -17.49214858	     -2.91547343	     -0.01839262	      9.23622173	     -0.11699417	     -7.05492412	      1.79921427	    -14.15593681	      4.60354325	     -8.82096713	     -7.62403002	      4.80446793
      1.21733333	      3.64656262	      5.68859952	     -3.08592736	      0.19927781	      1.02719168	      0.24971581	     15.97538594	     -6.80930644	     -2.83838396	    -59.41986545	      5.39916215	    -17.34259366	     -2.88063869	     -0.43718560	      9.12631448	     -0.02414652	     -6.76510702	      1.87313124	    -14.10838681	      4.58032080	     -8.79531930	     -7.49798276	      4.65726490
      1.22150000	      3.62973358	      5.59562661	     -2.97620839	      0.20432182	      1.02757461	      0.24952883	     16.32272312	     -6.63119416	     -2.89251231	    -58.46497566	      5.48778729	    -17.19085467	     -2.80011422	     -0.90994952	      9.04883477	      0.14781015	     -6.44676961	      1.97743896	    -14.10083006	      4.52539959	     -8.83110324	     -7.40234498	      4.28295249
      1.22566667	      3.57186889	      5.48726562	     -2.87699180	      0.20939182	      1.02786989	      0.24937481	     16.69581018	     -6.42706409	     -2.93283167	    -57.45536028	      5.56602394	    -17.04801207	     -2.76239010	     -1.32602527	      8.94618441	      0.23698463	     -6.15349171	      2.05340394	    -14.04808137	      4.50210231	     -8.79782240	     -7.28417621	      4.12591179
      1.22983333	      3.56629689	      5.40264853	     -2.75954807	      0.21443777	      1.02817740	      0.24919546	     16.99777028	     -6.26853460	     -3.00631594	    -56.41281535	      5.61397230	    -16.92826850	     -2.68175511	     -1.81013643	      8.87240603	      0.39640899	     -5.83469292	      2.16803267	    -14.03279951	      4.45156230	     -8.83853728	     -7.19367004	      3.74645098
      1.23400000	      3.49520981	      5.30256636	     -2.65512688	      0.21950184	      1.02837190	      0.24905884	     17.35417343	     -6.07815621	     -3.05216580	    -55.32094643	      5.66126753	    -16.79122222	     -2.64242021	     -2.21014783	      8.77313179	      0.48741742	     -5.54082825	      2.23910688	    -13.97303579	      4.42867729	     -8.79764355	     -7.08892330	      3.58146227
